<?xml version="1.0" encoding="utf-8"?>
<!-- Generator: Adobe Illustrator 20.0.0, SVG Export Plug-In . SVG Version: 6.00 Build 0)  -->
<svg version="1.1" id="Layer_1" xmlns="http://www.w3.org/2000/svg" xmlns:xlink="http://www.w3.org/1999/xlink" x="0px" y="0px"
	 viewBox="0 0 1920 625" style="enable-background:new 0 0 1920 625;" xml:space="preserve">
<style type="text/css">
	.st0{fill:none;}
	.st1{fill:#FFFFFF;}
</style>
<g>
	<path class="st0" d="M1113.6,191.3c-0.8-2.1-2.1-4.1-3.7-5.9c-1.7-1.8-3.7-3.3-6.2-4.5c-2.5-1.2-5.5-1.8-8.9-1.8
		c-3.5,0-6.5,0.6-9.2,1.8c-2.6,1.2-4.8,2.7-6.6,4.5c-1.7,1.8-3,3.7-4,5.8c-0.9,2.2-1.3,3.2-1.3,6.2h41.2
		C1114.8,194.5,1114.4,193.4,1113.6,191.3z"/>
	<path class="st0" d="M772.8,238.5c2.4,0,4.7-0.4,7-1.2c2.3-0.8,4.3-1.8,6-3.2c1.7-1.4,3.3-3.1,4.4-5.2c1.1-2.1,1.8-4.5,1.8-7.3
		v-7.9c0-0.1-2.1-0.3-4.1-0.5c-1.9-0.2-4.2-0.3-6.7-0.3c-8.3,0-14.2,1.2-17.7,3.5c-3.5,2.4-5.2,5.7-5.2,10
		C758.2,234.5,763.1,238.5,772.8,238.5z"/>
	<path class="st0" d="M1072.6,387.3c-1.7-1.8-3.7-3.3-6.2-4.5c-2.5-1.2-5.5-1.8-8.9-1.8c-3.5,0-6.5,0.6-9.2,1.8
		c-2.6,1.2-4.8,2.7-6.6,4.5c-1.7,1.8-3,4.2-4,6.4c-0.9,2.1-1.3,3.8-1.3,6.8h41.2c0-3-0.4-4.6-1.2-6.8
		C1075.5,391.6,1074.3,389.1,1072.6,387.3z"/>
	<polygon class="st0" points="1344.3,148.1 1327.1,200.5 1361.2,200.5 	"/>
	<path class="st0" d="M992.6,227.6c4.2-4.9,6.3-11.5,6.3-19.7c0-3.2-0.4-6.3-1.1-9.4c-0.8-3-1.9-5.7-3.5-8c-1.6-2.3-3.7-4.1-6.2-5.5
		c-2.6-1.4-5.7-2.1-9.5-2.1c-3.3,0-6.3,0.6-8.8,1.9c-2.6,1.2-4.7,2.9-6.4,5c-1.7,2.1-3.5,4.4-4.4,7.1c-0.9,2.6-1.8,5.3-1.8,8.1v26
		c6,2.6,10.1,4,17.8,4C982.1,235,988.4,232.5,992.6,227.6z"/>
	<path class="st0" d="M1473.9,234.1c3.3,0,6.2-0.6,8.6-1.8c2.4-1.2,4.4-2.7,6-4.7c1.6-1.9,3.7-4.2,4.4-6.9c0.7-2.6,2-5.3,2-8.1
		v-26.6c-4-1.2-5.3-2.1-7.7-2.7c-2.4-0.6-5.9-0.8-9.5-0.8c-7.6,0-13.8,2.6-18,7.7c-4.2,5.1-6.5,11.7-6.5,19.8
		c0,7.1,1.7,12.9,5.1,17.4C1461.9,231.9,1467,234.1,1473.9,234.1z"/>
	<path class="st0" d="M1592.9,212.9c-8.3,0-14.2,1.2-17.7,3.5c-3.5,2.4-5.2,5.7-5.2,10c0,8,4.8,12.1,14.6,12.1c2.4,0,4.7-0.4,7-1.2
		c2.3-0.8,4.3-1.8,6-3.2c1.7-1.4,3.4-3.1,4.5-5.2c1.1-2.1,1.9-4.5,1.9-7.3v-7.9c0-0.1-2.2-0.3-4.2-0.5
		C1597.9,213,1595.4,212.9,1592.9,212.9z"/>
	<path class="st1" d="M2.5,400.3l0.2,2.4c2.1,25,7.2,42.6,15.7,56.9c3.6,6,7.7,11.4,12.5,16.5c0.2,0.2,0.4,0.4,0.6,0.6
		c0.6,0.6,1.2,1.3,1.9,1.9c1.4,1.4,2.8,2.7,4.2,4c0.1,0.1,0.2,0.2,0.3,0.3c6.5,5.9,13.9,11.5,22.3,17.3c0.1,0,0.1,0.1,0.2,0.1
		c2.1,1.5,4.3,3,6.5,4.5c0.4,0.3,0.8,0.6,1.2,0.8c2,1.4,4.1,2.7,6.2,4.2c0.7,0.5,1.4,0.9,2.1,1.4c2.1,1.4,4.2,2.8,6.4,4.2
		c0.6,0.4,1.3,0.9,2,1.3c5.4,3.6,11.3,7.4,17.6,11.7c22.4,15.2,50.3,35.3,82.6,64c1.2,1.1,2.5,2.2,3.7,3.3c3.5,3.1,7,6.3,10.5,9.6
		c5.8,5.4,11.7,11,17.8,17l3.4,3.3l1.7-1.7l1.7-1.7c3.2-3.2,6.5-6.3,9.6-9.3c0.2-0.2,0.4-0.4,0.6-0.6c15.2-14.5,29.6-27.1,43.2-38.1
		c15.3-12.4,29.5-23,42.8-32.3c2.6-1.8,5.2-3.6,7.7-5.3c0.2-0.1,0.4-0.3,0.6-0.4c1.5-1,3-2.1,4.5-3.1c3.3-2.2,6.5-4.4,9.6-6.5
		c4.5-3,8.9-5.9,13.2-8.7l3.4-2.2c5.1-3.4,10-6.6,14.7-9.7c0.2-0.1,0.3-0.2,0.5-0.3c2.3-1.6,4.6-3.1,6.8-4.6
		c0.6-0.4,1.2-0.8,1.8-1.2c2.2-1.6,4.4-3.1,6.5-4.7c0.5-0.3,0.9-0.7,1.4-1c2.2-1.6,4.2-3.2,6.3-4.8c0.3-0.3,0.7-0.5,1-0.8
		c2.1-1.7,4.1-3.4,6.1-5.1c0.1-0.1,0.2-0.2,0.4-0.3c2-1.8,3.9-3.6,5.8-5.4c0.1-0.1,0.2-0.2,0.2-0.2c1.8-1.8,3.6-3.7,5.2-5.7
		c0.2-0.2,0.3-0.4,0.5-0.6c1.6-1.9,3.2-3.9,4.7-5.9c0.1-0.2,0.3-0.4,0.4-0.6c1.5-2.1,2.9-4.3,4.3-6.5c0,0,0,0,0-0.1
		c2.1-3.5,4-7.2,5.7-11.1c0.9-2.2,1.8-4.5,2.6-6.9c0.3-0.9,0.6-1.8,0.9-2.7c0-0.1,0-0.1,0.1-0.2c0.8-2.4,1.5-5,2.1-7.6
		c0.2-0.8,0.4-1.6,0.6-2.5c0.5-2.2,1-4.5,1.4-6.8c0.1-0.7,0.2-1.4,0.4-2c0.3-1.8,0.6-3.7,0.9-5.6c0.1-0.4,1.1-0.9,1.2-1.3
		c1.5-11.1,3.2-23.7,3.2-38.4V1.4L5.3,398.7L2.5,400.3z M418,453.1c-22.5,9-62.8,22.9-132.1,56.6c-73.4,35.6-65,94.3-64.5,97.6
		c-0.4-3.4-4.3-58,98.9-106.5c42.6-20,71-31.1,90.8-37.8c0,0,0,0,0,0c-12.7,15.7-31.2,27.9-57.1,44.9l-3.4,2.2
		c-34.5,22.7-77.4,50.7-130,102.1c-11.7-11.4-22.9-21.7-33.7-31.1c0,0,0,0,0,0c17.5-80.9,134-109.1,138.7-110.2
		c-3.2,0.3-55,5.9-78.7,15.5c-24.4,10-20,6.7-53.3,33.3c-34.4-17.7-20-41.1-12.2-44.4c7.8-3.3,14.4-7.8,2.2-14.4
		c-12.2-6.7-14.5-20-14.5-20s17.8-4.4,36.7-1.1c18.9,3.4,53.3,14.4,118.9,12.2c38-1.3,75.1-7.4,99.7-12.4
		C422.6,444.5,420.5,449,418,453.1C418,453.1,418,453.1,418,453.1z M88.4,507.2c-33.7-22.1-54.2-35.5-65.5-59.7
		c9.9-19.7,29.1-33.9,29.1-33.9S49,427.3,49,440.9c0,13.6,6.1,25.7,6.1,25.7s-4.5-31.8,24.2-59c28.7-27.3,86.2-12.1,86.2-12.1
		s-49.9,4.5-45.4,39.3c3.5,27,34.8,21.2,34.8,21.2s0,18.1-16.7,21.2c-15.9,2.9-23.6-4-24.2-4.5c0.4,1,6.8,16.6,33.2,16.6
		c0,0-1.5,10.4-4.5,18c-2.1,5.1-6.2,15.2-21.2,22.2c0,0,0,0,0,0C109.1,519.5,98,513.6,88.4,507.2z M427.1,432.4
		c-25.2,4.7-54.4,8.3-86.8,9.9c-81,4.1-158.8-13.5-171-16.8c-12.2-3.4-20-6.7-13.3-11.2c6.7-4.4,28.9-10,58.9-10
		s71.1,17.7,71.1,17.7l-9.9-20.8c1.2,2.2,12.9,17.9,109.8,14.7c9-0.3,26.1-2.4,45.3-2.4c0,0,0,0,0,0
		C430.1,419.5,428.8,426.5,427.1,432.4z M301.4,190c-23.7,0-41.5,6.9-41.5,6.9s10.9-16.8,35.6-28.7c42.5-18.8,71.5-5.7,85.1,0
		c18.1,7.7,3.9,18.8,3.9,18.8s39.6-1,41.5,49.4c2,33.6-27.7,56.4-27.7,56.4s7.9-33.6-9.9-44.5c4,23.7,6.9,50.4-16.8,69.2
		c-21.3,18.4-54,8.2-62.3,5.9c69.5-37.8-11.9-96.4-47.5-54.4c-55.4,60.3,3,126.6,3,126.6s-21.8-10.9-32.6-50.4
		c-7.5-27.1,0-52.4,0-52.4s-11.4,11.8-7.9,52.4c0,0-14.8-17.8-14.8-39.6c0-21.8,1-66.3,41.5-92c40.5-25.7,74.2-19.8,74.2-19.8
		S325.2,190,301.4,190z M313.1,305.5c10.3-2.3,18-18.9,18-18.9s-4.5,22.1-18.5,24.3c-11.7,1.9-18.5,0-25.2-6.3
		c-6.8-6.3-21.2-24.3-8.1-38.7c14.8-16.3,48.2,9,38.3,23.9c-9.9,14.8-26.4,6.3-26.4,6.3S300.7,308.3,313.1,305.5z M432.1,403.9
		c-1,0.1-2.1,0-3,0.1c-33.5,2.2-94.9,2.1-118.3-1.2c-23.5-3.3-61.4-34.6-61.4-74.8c0-25.7,16.8-44.7,16.8-44.7s4.7,26.5,19,40.2
		c25.7,24.6,51.3,14.5,51.3,14.5s5.6-2.2,11.1,6.7c5.6,8.9,11.7,21.9,25.2,32.4c14.1,11,35.1,21.5,56.4,20.4
		c1.1-0.1,2.3,0.1,3.6,0.1c0,0,0,0,0,0C432.5,400.5,432.3,401.7,432.1,403.9z"/>
	<path class="st1" d="M0,1.5v371.7c0,3.6,0.8,7.3,0.9,10.7L424.4,1.5H0z M74,97.5v-29H42v29H26v-74h16v29h32v-29h16v74H74z"/>
	<polygon class="st1" points="676,171.5 618,171.5 618,117.5 586,117.5 586,255.5 618,255.5 618,200.5 676,200.5 676,255.5 
		709,255.5 709,117.5 676,117.5 	"/>
	<path class="st1" d="M740.6,253.4c3.3,2.3,6.8,3.9,10.6,4.9c3.8,1,7.5,1.5,10.9,1.5c6.2,0,11.9-1,17-3.1c5.1-2.1,9.3-5.7,12.6-9.6
		l0.8,8.5H821V200c0-13.5-3.7-24.2-10.8-32.1c-7.1-8-18.1-12-33-12c-5.8,0-11,0.4-15.6,1.1c-4.5,0.8-8.6,1.8-12.2,3
		c-3.6,1.2-6.7,2.6-9.4,4.2c-2.6,1.5-5,3-7.1,4.6l12.3,18.3c3-2.1,6.7-3.9,11.1-5.6c4.4-1.7,9.9-2.5,16.5-2.5c2.5,0,4.9,0.2,7.1,0.7
		c2.2,0.5,4.2,1.3,5.9,2.5c1.7,1.2,3.3,2.6,4.3,4.4c1,1.7,1.7,3.9,1.7,6.3v2.1c-3-0.3-3.6-0.5-7.1-0.6c-3.5-0.1-7.1-0.2-10.6-0.2
		c-6.4,0-12.3,0.8-17.8,2.3c-5.5,1.5-10.2,3.8-14.3,6.8c-4,3-7.2,6.7-9.5,11.1c-2.3,4.4-3.4,9.5-3.4,15.2c0,5.8,1.1,10.7,3.2,14.6
		C734.7,248,737.4,251.1,740.6,253.4z M763.4,216.4c3.5-2.4,9.4-3.5,17.7-3.5c2.5,0,4.9,0.1,6.8,0.3c1.9,0.2,4.1,0.4,4.1,0.5v7.9
		c0,2.8-0.7,5.2-1.8,7.3c-1.1,2.1-2.6,3.8-4.3,5.2c-1.7,1.4-3.8,2.5-6.1,3.2c-2.3,0.8-4.6,1.2-7,1.2c-9.7,0-14.6-4-14.6-12.1
		C758.2,222.1,760,218.8,763.4,216.4z"/>
	<path class="st1" d="M908.8,185.6l4.8-26.4c-1.8-0.7-3.6-1.2-5.5-1.5c-1.9-0.3-4.1-0.4-6.8-0.4c-6.9,0-12.6,1.5-16.9,4.6
		c-4.4,3.1-7.8,5.9-10.3,9.2l-1-12.6H844v97h29v-47c0-7.8,2.8-13.8,7.2-18c4.4-4.2,10.4-6.3,17.5-6.3
		C901.9,184.2,905.8,184.7,908.8,185.6z"/>
	<path class="st1" d="M957,256.2c3,0.8,5.8,1.7,8.8,2.5c3,0.8,7.2,1.2,11.9,1.2c6,0,12.1-1,18.2-3.1c6.1-2.1,11.6-5.3,16.5-9.6
		c4.8-4.3,8.8-9.8,11.9-16.4c3-6.7,4.6-14.5,4.6-23.5c0-6.4-0.9-12.6-2.7-18.6c-1.8-6-4.5-11.4-8.1-16c-3.6-4.6-8.1-8.4-13.5-11.1
		c-5.4-2.8-11.7-4.2-18.7-4.2c-5.4,0-10.6,1.1-15.6,3.2c-5,2.2-9.1,5.2-12.3,9.3c-0.1-1.8-0.3-3.9-0.4-5.7c-0.1-1.7-0.3-1.7-0.6-5.7
		H928v139h29V256.2z M957,205c0-2.8,0.9-5.5,1.8-8.1c0.9-2.6,2.5-5,4.2-7.1c1.7-2.1,4-3.7,6.6-5c2.6-1.2,5.6-1.9,8.9-1.9
		c3.7,0,6.9,0.7,9.5,2.1c2.6,1.4,4.7,3.2,6.3,5.5c1.6,2.3,2.8,5,3.5,8c0.8,3.1,1.1,6.2,1.1,9.4c0,8.2-2.1,14.7-6.3,19.7
		c-4.2,4.9-10.5,7.4-17.9,7.4c-7.6,0-11.8-1.3-17.8-4V205z"/>
	<path class="st1" d="M1136.1,249.6c2.2-1.6,3.9-2.7,5-3.4l-12.3-18.9c-2.2,1.7-5.8,3.6-10.6,5.9c-4.9,2.3-11.2,3.4-18.9,3.4
		c-7.9,0-14.1-2.1-18.6-6.1c-4.5-3.9-6.8-7-7-14h70.4v-4.6c0-8.2-1.5-15.7-3.6-22.6c-2.1-6.9-5.4-12.8-9.5-17.7
		c-4.1-4.9-9.2-8.8-15.2-11.5c-6-2.8-13-4.2-20.9-4.2c-7.9,0-15,1.4-21.3,4.3c-6.2,2.8-11.5,6.6-15.8,11.3
		c-4.3,4.7-7.6,10.2-9.9,16.5c-2.3,6.3-3.4,12.9-3.4,19.7c0,7.8,1.2,14.9,3.6,21.3c2.4,6.4,6,12,10.6,16.5c4.6,4.6,10.3,8.1,17,10.7
		c6.7,2.6,14.1,3.8,22.5,3.8c6.2,0,11.8-0.6,16.6-1.8c4.8-1.2,9-2.5,12.6-4.1C1131,252.8,1133.8,251.2,1136.1,249.6z M1075,191.3
		c0.9-2.1,2.2-4.1,4-5.9c1.7-1.8,3.9-3.3,6.6-4.5c2.6-1.2,5.7-1.8,9.2-1.8c3.5,0,6.4,0.6,8.9,1.8c2.5,1.2,4.6,2.7,6.2,4.5
		c1.7,1.8,2.9,3.7,3.7,5.8c0.8,2.2,1.2,3.2,1.2,6.2h-41.2C1073.6,194.5,1074.1,193.4,1075,191.3z"/>
	<path class="st1" d="M1226.8,185.6l4.8-26.4c-1.8-0.7-3.6-1.2-5.5-1.5c-1.9-0.3-4.1-0.4-6.8-0.4c-6.9,0-12.6,1.5-16.9,4.6
		c-4.4,3.1-7.8,5.9-10.3,9.2l-1-12.6h-28v97h29v-47c0-7.8,2.3-13.8,6.7-18c4.4-4.2,10.2-6.3,17.2-6.3
		C1220.1,184.2,1223.7,184.7,1226.8,185.6z"/>
	<path class="st1" d="M1319.8,223.5h48.9l10.6,32h34.3l-50.8-138h-34.7l-51.8,138h32.9L1319.8,223.5z M1344.3,148.1l16.8,52.4h-34.1
		L1344.3,148.1z"/>
	<path class="st1" d="M1435.3,246.1c3.8,4.4,8.3,7.7,13.5,10.1c5.2,2.4,10.8,3.5,16.7,3.5c6.1,0,11.5-1.2,16.3-3.6
		c4.8-2.4,8.7-6.1,11.8-9.7l1.2,9.1h29v-138h-29v43c-4-1-6.4-1.8-9.1-2.4c-2.6-0.6-6.8-0.9-11.5-0.9c-5.8,0-12,1.1-18,3.2
		c-6,2.2-11.6,5.4-16.6,9.7c-4.9,4.3-9,9.7-12.1,16.3c-3.1,6.6-4.7,14.3-4.7,23c0,7.8,1.1,14.7,3.3,20.9
		C1428.5,236.4,1431.5,241.7,1435.3,246.1z M1459.5,190.2c4.2-5.1,10.2-7.7,17.8-7.7c3.6,0,7.6,0.3,10,0.8c2.4,0.6,3.7,1.5,7.7,2.7
		v26.6c0,2.8-1.3,5.5-2,8.1c-0.7,2.6-2.3,4.9-3.9,6.9c-1.6,1.9-3.9,3.5-6.3,4.7c-2.4,1.2-5.4,1.8-8.7,1.8c-6.9,0-12.2-2.2-15.7-6.8
		c-3.5-4.5-5.2-10.3-5.2-17.4C1453.2,201.9,1455.2,195.4,1459.5,190.2z"/>
	<path class="st1" d="M1589,155.9c-5.8,0-11,0.4-15.5,1.1c-4.5,0.8-8.6,1.8-12.2,3c-3.6,1.2-6.7,2.6-9.4,4.2c-2.6,1.5-5,3-7.1,4.6
		l12.3,18.3c3-2.1,6.8-3.9,11.1-5.6c4.4-1.7,9.9-2.5,16.5-2.5c2.5,0,4.9,0.2,7.1,0.7c2.2,0.5,4.2,1.3,5.9,2.5
		c1.7,1.2,3.3,2.6,4.4,4.4c1,1.7,1.8,3.9,1.8,6.3v2.1c-3-0.3-3.6-0.5-7.2-0.6c-3.5-0.1-7.1-0.2-10.6-0.2c-6.4,0-12.4,0.8-17.8,2.3
		c-5.5,1.5-10.2,3.8-14.3,6.8c-4,3-7.2,6.7-9.5,11.1c-2.3,4.4-3.4,9.5-3.4,15.2c0,5.8,1.1,10.7,3.2,14.6c2.1,3.9,4.8,7,8.1,9.3
		c3.3,2.3,6.8,3.9,10.6,4.9c3.8,1,7.5,1.5,10.9,1.5c6.2,0,11.9-1,17-3.1c5.1-2.1,9.3-5.7,12.6-9.6l0.8,8.5h28.6V200
		c0-13.5-3.8-24.2-10.9-32.1C1615.1,159.9,1603.8,155.9,1589,155.9z M1604,221.6c0,2.8-0.8,5.2-1.9,7.3c-1.1,2.1-2.6,3.8-4.4,5.2
		c-1.7,1.4-3.8,2.5-6.1,3.2c-2.3,0.8-4.6,1.2-7,1.2c-9.7,0-14.6-4-14.6-12.1c0-4.3,1.7-7.6,5.2-10c3.5-2.4,9.4-3.5,17.7-3.5
		c2.5,0,4.9,0.1,6.9,0.3c1.9,0.2,4.2,0.4,4.2,0.5V221.6z"/>
	<path class="st1" d="M1775.6,156.9c-6.2,0-12.2,1.2-18,3.5c-5.8,2.4-10.6,5.7-14.7,10c-1.1-1.5-2.5-3.1-4.3-4.7
		c-1.7-1.6-3.7-3-6-4.4c-2.3-1.3-5-2.4-8-3.2c-3.1-0.8-6.5-1.2-10.4-1.2c-6.4,0-11.9,1.2-16.6,3.7c-4.7,2.5-8.6,5.3-11.7,9l-1-11.2
		H1656v97h29v-51.1c0-6.2,2.3-11.4,5.9-15.4c3.5-4,8.4-6,14.1-6c5.1,0,8.8,1.6,11.3,4.8c2.6,3.2,3.6,7.7,3.6,13.5v54.2h29v-51.1
		c0-6.2,2.1-11.4,5.5-15.4c3.5-4,8.3-6,14.1-6c5.1,0,9.5,1.6,12,4.8c2.6,3.2,4.3,7.7,4.3,13.5v54.2h29v-59c0-12.2-3.2-21.9-9.8-28.9
		C1797.6,160.5,1788.1,156.9,1775.6,156.9z"/>
	<path class="st1" d="M1913.3,209.6c-4.5-4.8-11.7-8.7-21.7-11.4c-7.3-1.9-13.2-3.7-17.5-5.2c-4.3-1.5-6.4-3.9-6.4-7.1
		c0-2.2,1-4,3.1-5.3c2.1-1.3,5.4-2,10-2c5.1,0,9.7,0.8,13.8,2.5c4.1,1.7,7.7,3.5,10.9,5.6l12.7-19.8c-5.3-3.6-11-6.3-17.3-8.2
		c-6.2-1.9-13.5-2.8-21.9-2.8c-5.8,0-11.3,0.7-16.3,2.2c-5.1,1.5-9.4,3.5-13.1,6.2c-3.7,2.7-6.6,5.9-8.6,9.6
		c-2.1,3.7-3.1,7.8-3.1,12.4c0,4.4,0.9,8.3,2.6,11.7c1.7,3.3,4,6.2,6.9,8.5c2.8,2.4,6.1,4.3,9.8,5.9c3.7,1.6,7.4,2.9,11.1,3.8
		c4.6,1.3,8.4,2.4,11.3,3.3c3,1,5.3,1.9,7,2.8c1.7,0.9,2.8,1.9,3.4,2.9c0.6,1,0.9,2.2,0.9,3.4c0,3.2-1.5,5.3-4.4,6.4
		c-2.9,1.1-6.6,1.7-11,1.7c-4.8,0-9.9-1-15.1-2.9c-5.2-1.9-9.4-4.4-12.6-7.3l-14.8,19.1c4.9,4.9,11.2,8.5,18.9,10.8
		c7.8,2.4,16,3.5,24.8,3.5c5.4,0,10.7-0.6,15.9-1.9c5.2-1.2,9.9-3.2,13.9-5.7c4.1-2.6,7.3-5.8,9.8-9.7c2.4-3.9,3.6-8.5,3.6-13.9
		C1920,220.9,1917.8,214.4,1913.3,209.6z"/>
	<path class="st1" d="M670,402.1c0,4.6-0.9,8.7-1.8,12.4c-0.9,3.7-2.6,6.8-4.7,9.5c-2.1,2.6-4.9,4.7-8.3,6.1
		c-3.4,1.5-7.6,2.2-12.4,2.2c-5,0-9.2-0.7-12.6-2.2c-3.4-1.5-6.2-3.5-8.2-6.1c-2.1-2.6-4.1-5.8-5-9.5c-0.9-3.7-1.9-7.8-1.9-12.4
		v-81.6h-32v85.6c0,8.3,2.1,15.9,4.8,22.9c2.7,6.9,6.9,12.9,12,17.9c5.1,5,11.4,8.8,18.6,11.5c7.2,2.7,15.3,4.1,24.2,4.1
		c8.9,0,17-1.4,24.2-4.2c7.2-2.8,13.4-6.6,18.4-11.5c5.1-4.9,9.5-10.8,12.2-17.8c2.7-6.9,4.6-14.6,4.6-22.9v-85.6h-32V402.1z"/>
	<path class="st1" d="M785.3,358.8c-5.7,0-11.1,1.2-16.3,3.5c-5.2,2.4-9.4,5.7-12.6,9.5l-0.8-10.4H728v97h29v-52.2
		c0-2.9,0.2-5.7,1-8.2c0.8-2.6,2-4.8,3.6-6.8c1.7-1.9,3.7-3.5,6.2-4.7c2.5-1.2,5.4-1.8,8.7-1.8c4.9,0,8.7,1.6,11.4,4.8
		c2.7,3.2,4.1,7.5,4.1,12.9v56h29v-60.1c0-13-2.8-22.9-9.4-29.5C805,362.2,796.5,358.8,785.3,358.8z"/>
	<rect x="847" y="361.5" class="st1" width="29" height="97"/>
	<rect x="844" y="320.5" class="st1" width="32" height="25"/>
	<polygon class="st1" points="947.8,425.6 924.7,361.5 891.4,361.5 932.6,458.5 960.9,458.5 1002.7,361.5 970,361.5 	"/>
	<path class="st1" d="M1093.5,373.5c-4.1-4.9-9.1-8.8-15.1-11.5c-6-2.8-12.9-4.2-20.8-4.2c-7.9,0-15,1.4-21.2,4.3
		c-6.2,2.8-11.5,6.6-15.8,11.3c-4.3,4.7-7.6,10.2-9.9,16.5c-2.3,6.3-3.4,12.9-3.4,19.7c0,7.8,1.2,14.9,3.6,21.3
		c2.4,6.4,6,12,10.6,16.5c4.6,4.6,10.3,8.1,17,10.7c6.7,2.6,14.1,3.8,22.5,3.8c6.2,0,11.8-0.6,16.6-1.8c4.8-1.2,9-2.5,12.6-4
		c3.5-1.5,6.4-3.1,8.6-4.7c2.2-1.6,3.9-2.7,5-3.4l-12.3-18.9c-2.2,1.7-5.8,3.6-10.6,5.9c-4.9,2.3-11.2,3.4-18.9,3.4
		c-7.9,0-14.1-1.6-18.6-5.6c-4.5-4-6.8-9.5-7-13.5h68.6v-5.7c0-8.2-0.6-15.7-2.7-22.6C1100.2,384.3,1097.6,378.4,1093.5,373.5z
		 M1036.4,400.5c0-3,0.5-4.6,1.3-6.8c0.9-2.2,2.2-4.4,4-6.2c1.7-1.8,3.9-3.4,6.6-4.6c2.6-1.2,5.7-1.8,9.2-1.8c3.5,0,6.4,0.6,8.9,1.7
		c2.5,1.2,4.6,2.7,6.2,4.5c1.7,1.8,2.9,4.2,3.7,6.4c0.8,2.1,1.2,3.8,1.2,6.8H1036.4z"/>
	<path class="st1" d="M1182,359.3c-6.9,0-12.6,1.5-16.9,4.6c-4.4,3.1-7.8,6.4-10.3,9.8l-1-12.1H1124v97h32v-48.1
		c0-7.8,1.7-13.8,6-18c4.4-4.2,9.8-6.3,16.9-6.3c4.2,0,7.6,0.5,10.7,1.5l4.7-26.4c-1.8-0.7-3.7-1.2-5.5-1.5
		C1187,359.4,1184.7,359.3,1182,359.3z"/>
	<path class="st1" d="M1259.4,400c-7.3-1.9-13.2-3.7-17.5-5.2c-4.3-1.5-6.4-3.9-6.4-7.1c0-2.2,1-4,3.1-5.3c2.1-1.3,5.4-2,10-2
		c5.1,0,9.7,0.8,13.8,2.5c4.1,1.7,7.7,3.5,10.9,5.6l12.7-19.8c-5.3-3.6-11-6.3-17.3-8.2c-6.2-1.9-13.5-2.8-21.9-2.8
		c-5.8,0-11.3,0.7-16.3,2.2c-5.1,1.5-9.4,3.5-13.1,6.2c-3.7,2.7-6.6,5.9-8.6,9.6c-2.1,3.7-3.1,7.8-3.1,12.4c0,4.4,0.9,8.3,2.6,11.7
		c1.7,3.3,4,6.2,6.9,8.5c2.8,2.4,6.1,4.3,9.8,5.9c3.7,1.6,7.4,2.9,11.1,3.8c4.6,1.3,8.4,2.4,11.3,3.3c3,1,5.3,1.9,7,2.8
		c1.7,0.9,2.8,1.9,3.4,2.9c0.6,1,0.9,2.2,0.9,3.4c0,3.2-1.5,5.3-4.4,6.4c-2.9,1.1-6.6,1.7-11,1.7c-4.8,0-9.9-1-15.1-2.9
		c-5.2-1.9-9.4-4.4-12.6-7.3l-14.8,19.1c4.9,4.9,11.2,8.5,18.9,10.8c7.8,2.4,16,3.5,24.8,3.5c5.4,0,10.7-0.6,15.9-1.9
		c5.2-1.2,9.9-3.1,13.9-5.7c4.1-2.6,7.3-5.8,9.8-9.7c2.4-3.9,3.6-8.5,3.6-13.9c0-8-2.3-14.5-6.8-19.3
		C1276.7,406.6,1269.4,402.8,1259.4,400z"/>
	<rect x="1308" y="361.5" class="st1" width="32" height="97"/>
	<rect x="1308" y="320.5" class="st1" width="32" height="25"/>
	<path class="st1" d="M1420.7,436.3c-2.2,1-4.9,1.6-7.9,1.6c-4,0-7-1.3-8.9-3.9c-1.9-2.6-2.9-6.2-2.9-10.9v-38.6h26v-23h-26v-29h-29
		v29h-16v23h16v37c0,6.1,0.2,11.7,1.5,16.6c1.3,5,3.1,9.3,6,12.8c2.9,3.5,6.6,6.3,11.3,8.3c4.7,2,10.5,3,17.4,3
		c11.1,0,21.3-3.7,30.8-11.2l-12.1-18.3C1425,434.1,1422.9,435.3,1420.7,436.3z"/>
	<path class="st1" d="M1497.2,423.1l-24.3-61.6h-34.1l44.5,96.4l-2.9,7.8c-1.9,4.8-4,8.2-6.1,10.2c-2.1,2-4.8,3-8,3
		c-2.4,0-4.5-0.5-6.6-1.5c-2-1-3.9-2.1-5.5-3.3l-12.1,20.6c3.6,2.6,7.6,4.6,11.9,6c4.3,1.4,9.1,2.1,14.4,2.1c6.8,0,12.4-1.3,17-4
		c4.5-2.6,8.3-6.1,11.4-10.3c3.1-4.2,5.8-9,7.9-14.4c2.1-5.3,4.3-10.5,6.6-15.9l39.9-96.8h-31.8L1497.2,423.1z"/>
</g>
</svg>
